<svg xmlns="http://www.w3.org/2000/svg" width="400" height="400" viewBox="0 0 400 400">
  <defs>
    <linearGradient id="bgGrad3" x1="0%" y1="0%" x2="100%" y2="100%">
      <stop offset="0%" style="stop-color:#4a1942;stop-opacity:1" />
      <stop offset="100%" style="stop-color:#8b3a6e;stop-opacity:1" />
    </linearGradient>
    <linearGradient id="fabricGrad" x1="0%" y1="0%" x2="100%" y2="0%">
      <stop offset="0%" style="stop-color:#ec4899;stop-opacity:1" />
      <stop offset="50%" style="stop-color:#f9a8d4;stop-opacity:1" />
      <stop offset="100%" style="stop-color:#ec4899;stop-opacity:1" />
    </linearGradient>
  </defs>
  <rect width="100%" height="100%" fill="url(#bgGrad3)"/>
  <!-- Dress -->
  <g transform="translate(150, 40)">
    <path d="M50 0 L80 0 L90 30 L40 30 Z" fill="url(#fabricGrad)"/>
    <path d="M40 30 Q20 50 10 90 L30 90 Q40 60 50 50 L70 50 Q80 60 90 90 L110 90 Q100 50 80 30 Z" fill="url(#fabricGrad)"/>
    <path d="M30 90 Q10 150 0 240 L120 240 Q110 150 90 90 Z" fill="url(#fabricGrad)" opacity="0.9"/>
    <path d="M0 240 Q-10 270 0 300 L120 300 Q130 270 120 240 Z" fill="#ec4899" opacity="0.8"/>
  </g>
  <text x="200" y="340" font-family="Georgia, serif" font-size="18" fill="white" text-anchor="middle">ELEGANT DRESS</text>
  <text x="200" y="365" font-family="Arial, sans-serif" font-size="14" fill="#f9a8d4" text-anchor="middle" opacity="0.8">Designer Collection</text>
</svg>
