<svg xmlns="http://www.w3.org/2000/svg" width="400" height="300" viewBox="0 0 400 300">
  <defs>
    <linearGradient id="catGrad3" x1="0%" y1="0%" x2="100%" y2="100%">
      <stop offset="0%" style="stop-color:#4a1942;stop-opacity:1" />
      <stop offset="100%" style="stop-color:#8b3a6e;stop-opacity:1" />
    </linearGradient>
    <linearGradient id="fabricGrad2" x1="0%" y1="0%" x2="100%" y2="0%">
      <stop offset="0%" style="stop-color:#ec4899;stop-opacity:1" />
      <stop offset="50%" style="stop-color:#f9a8d4;stop-opacity:1" />
      <stop offset="100%" style="stop-color:#ec4899;stop-opacity:1" />
    </linearGradient>
  </defs>
  <rect width="100%" height="100%" fill="url(#catGrad3)"/>
  <!-- Dress Icon -->
  <g transform="translate(160, 30)">
    <path d="M40 0 L60 0 L65 20 L35 20 Z" fill="url(#fabricGrad2)"/>
    <path d="M35 20 Q20 35 15 55 L30 55 Q35 40 40 35 L60 35 Q65 40 70 55 L85 55 Q80 35 65 20 Z" fill="url(#fabricGrad2)"/>
    <path d="M30 55 Q15 90 10 140 L90 140 Q85 90 70 55 Z" fill="url(#fabricGrad2)" opacity="0.9"/>
  </g>
  <text x="200" y="250" font-family="Georgia, serif" font-size="24" fill="white" text-anchor="middle">CLOTHING</text>
  <text x="200" y="275" font-family="Arial, sans-serif" font-size="12" fill="#f9a8d4" text-anchor="middle" opacity="0.8">Fashion Collection</text>
</svg>
