<svg xmlns="http://www.w3.org/2000/svg" width="400" height="300" viewBox="0 0 400 300">
  <defs>
    <linearGradient id="catGrad2" x1="0%" y1="0%" x2="100%" y2="100%">
      <stop offset="0%" style="stop-color:#0d5c3d;stop-opacity:1" />
      <stop offset="100%" style="stop-color:#059669;stop-opacity:1" />
    </linearGradient>
    <linearGradient id="aloeGrad2" x1="0%" y1="0%" x2="100%" y2="0%">
      <stop offset="0%" style="stop-color:#10b981;stop-opacity:1" />
      <stop offset="50%" style="stop-color:#6ee7b7;stop-opacity:1" />
      <stop offset="100%" style="stop-color:#10b981;stop-opacity:1" />
    </linearGradient>
  </defs>
  <rect width="100%" height="100%" fill="url(#catGrad2)"/>
  <!-- Aloe Plant Icon -->
  <g transform="translate(160, 40)">
    <path d="M40 150 Q30 100 20 60 Q15 40 25 20 Q35 40 40 60 Q45 100 40 150" fill="url(#aloeGrad2)" opacity="0.9"/>
    <path d="M40 150 Q50 100 60 60 Q65 40 55 20 Q45 40 40 60 Q35 100 40 150" fill="url(#aloeGrad2)" opacity="0.9"/>
    <path d="M40 150 Q20 110 0 80 Q-10 60 5 45 Q25 65 35 85 Q45 110 40 150" fill="#10b981" opacity="0.8"/>
    <path d="M40 150 Q60 110 80 80 Q90 60 75 45 Q55 65 45 85 Q35 110 40 150" fill="#10b981" opacity="0.8"/>
  </g>
  <text x="200" y="250" font-family="Georgia, serif" font-size="24" fill="white" text-anchor="middle">FOREVER LIVING</text>
  <text x="200" y="275" font-family="Arial, sans-serif" font-size="12" fill="#6ee7b7" text-anchor="middle" opacity="0.8">Natural Wellness</text>
</svg>
